<?xml version="1.0" encoding="UTF-8" standalone="no"?>
<svg
   xmlns:dc="http://purl.org/dc/elements/1.1/"
   xmlns:cc="http://creativecommons.org/ns#"
   xmlns:rdf="http://www.w3.org/1999/02/22-rdf-syntax-ns#"
   xmlns:svg="http://www.w3.org/2000/svg"
   xmlns="http://www.w3.org/2000/svg"
   xmlns:sodipodi="http://sodipodi.sourceforge.net/DTD/sodipodi-0.dtd"
   xmlns:inkscape="http://www.inkscape.org/namespaces/inkscape"
   inkscape:version="1.0 (4035a4fb49, 2020-05-01)"
   sodipodi:docname="Packard Bell (1993) Symbol.svg"
   id="svg34"
   version="1.1"
   viewBox="0 0 183.00601 185.09017"
   height="753.37909"
   width="744.89581">
  <metadata
     id="metadata40">
    <rdf:RDF>
      <cc:Work
         rdf:about="">
        <dc:format>image/svg+xml</dc:format>
        <dc:type
           rdf:resource="http://purl.org/dc/dcmitype/StillImage" />
        <dc:title></dc:title>
      </cc:Work>
    </rdf:RDF>
  </metadata>
  <defs
     id="defs38" />
  <sodipodi:namedview
     inkscape:current-layer="svg34"
     inkscape:window-maximized="1"
     inkscape:window-y="-8"
     inkscape:window-x="-8"
     inkscape:cy="467.22786"
     inkscape:cx="-168.77817"
     inkscape:zoom="0.43386034"
     scale-x="0.24568"
     fit-margin-bottom="0"
     fit-margin-right="0"
     fit-margin-left="0"
     fit-margin-top="0"
     showgrid="false"
     id="namedview36"
     inkscape:window-height="705"
     inkscape:window-width="1366"
     inkscape:pageshadow="2"
     inkscape:pageopacity="0"
     guidetolerance="10"
     gridtolerance="10"
     objecttolerance="10"
     borderopacity="1"
     bordercolor="#666666"
     pagecolor="#ffffff" />
  <g
     transform="scale(5.3815797,5.4040926)"
     id="g986">
    <path
       style="clip-rule:evenodd;fill:#37abc8;fill-rule:evenodd"
       d="m 10.804,11.6 c -1.473,0 -2.885,0.614 -3.928,1.657 l 1.473,1.473 c 0.614,-0.675 1.534,-1.043 2.455,-1.043 z"
       id="path116" />
    <path
       style="clip-rule:evenodd;fill:#37abc8;fill-rule:evenodd"
       d="m 16.021,25.287 2.517,-2.578 h -5.034 z"
       id="path106" />
    <path
       style="clip-rule:evenodd;fill:#37abc8;fill-rule:evenodd"
       d="m 13.996,28.908 c -0.798,0 -2.21,-0.551 -2.21,-2.086 h 5.954 v 2.086 z"
       id="path104" />
    <path
       style="clip-rule:evenodd;fill:#ff0000;fill-rule:evenodd"
       d="m 22.711,15.099 c -0.798,0 -2.21,0.552 -2.21,2.025 h 13.32 v -2.025 z"
       id="path102" />
    <path
       style="clip-rule:evenodd;fill:#ff0000;fill-rule:evenodd"
       d="m 23.939,20.869 h 7.55 v -2.025 h -7.55 z"
       id="path100" />
    <path
       style="clip-rule:evenodd;fill:#ff0000;fill-rule:evenodd"
       d="m 23.939,11.6 v 2.025 h 7.366 V 11.6 Z"
       id="path98" />
    <path
       style="clip-rule:evenodd;fill:#ff0000;fill-rule:evenodd"
       d="M 24.553,7.549 C 24.124,6.996 23.755,6.444 23.325,5.953 h 7.979 V 3.927 H 21.116 A 16.352,16.352 0 0 0 18.231,2.086 H 28.543 V 0 H 11.049 l -0.062,2.086 c 0.062,0 8.225,0.614 12.092,7.059 l 0.307,0.491 H 34.005 V 7.55 h -9.452 z"
       id="path96" />
    <path
       style="clip-rule:evenodd;fill:#0066ff;fill-rule:evenodd"
       d="M 2.087,19.394 H 0 c 0,1.475 0.614,2.824 1.596,3.807 a 5.346,5.346 0 0 0 3.805,1.596 V 22.772 A 3.357,3.357 0 0 1 3.069,21.79 C 2.456,21.113 2.087,20.316 2.087,19.394 Z"
       id="path94" />
    <path
       style="clip-rule:evenodd;fill:#3771c8;fill-rule:evenodd"
       d="m 3.868,28.601 v 2.764 a 13.332,13.332 0 0 0 8.286,2.885 v -2.088 c -3.13,0 -6.138,-1.227 -8.286,-3.561 z"
       id="path92" />
    <path
       style="clip-rule:evenodd;fill:#ff0000;fill-rule:evenodd"
       d="m 23.939,22.709 -0.184,0.738 c -0.552,2.146 -1.719,4.051 -3.315,5.584 h 2.824 c 0.982,-1.289 1.719,-2.699 2.271,-4.297 h 8.471 v -2.025 z"
       id="path90" />
    <path
       style="clip-rule:evenodd;fill:#ff0000;fill-rule:evenodd"
       d="m 13.075,17.247 c 0,-1.228 -1.043,-2.209 -2.271,-2.209 -1.228,0 -2.271,0.982 -2.271,2.209 z"
       id="path88" />
    <path
       style="clip-rule:evenodd;fill:#37abc8;fill-rule:evenodd"
       d="m 10.804,11.6 c 1.473,0 2.885,0.552 3.99,1.596 1.043,1.105 1.596,2.517 1.596,3.928 v 3.56 h 2.087 v -3.56 a 7.436,7.436 0 0 0 -2.271,-5.34 C 14.794,10.311 12.83,9.513 10.805,9.513 V 11.6 Z"
       id="path30" />
  </g>
</svg>
